<svg width="200" height="150" xmlns="http://www.w3.org/2000/svg">
  <!-- Ship Hull Base -->
  <path d="M30,100 L50,120 L150,120 L170,100 L140,85 L60,85 Z" fill="#8B4513" />
  
  <!-- Ship Planks -->
  <line x1="45" y1="95" x2="155" y2="95" stroke="#A0522D" stroke-width="2" />
  <line x1="40" y1="105" x2="160" y2="105" stroke="#A0522D" stroke-width="2" />
  <line x1="45" y1="115" x2="155" y2="115" stroke="#A0522D" stroke-width="2" />
  
  <!-- Vertical Supports -->
  <line x1="60" y1="85" x2="55" y2="120" stroke="#A0522D" stroke-width="3" />
  <line x1="90" y1="85" x2="85" y2="120" stroke="#A0522D" stroke-width="3" />
  <line x1="120" y1="85" x2="115" y2="120" stroke="#A0522D" stroke-width="3" />
  <line x1="140" y1="85" x2="135" y2="120" stroke="#A0522D" stroke-width="3" />
  
  <!-- Broken Mast -->
  <path d="M100,85 L90,50 L95,48 L105,52 L110,85 Z" fill="#A0522D" />
  
  <!-- Broken Sail -->
  <path d="M95,48 L75,60 L70,70 L85,75 L95,65 Z" fill="#D2B48C" opacity="0.7" />
  
  <!-- Wooden Debris -->
  <rect x="155" y="110" width="20" height="5" fill="#8B4513" transform="rotate(30 155 110)" />
  <rect x="25" y="110" width="15" height="4" fill="#8B4513" transform="rotate(-20 25 110)" />
  <rect x="170" y="100" width="15" height="3" fill="#8B4513" transform="rotate(10 170 100)" />
  
  <!-- Metal Parts -->
  <circle cx="75" cy="90" r="3" fill="#B87333" />
  <circle cx="130" cy="95" r="2" fill="#B87333" />
  <rect x="100" y="100" width="10" height="5" fill="#B87333" />
  
  <!-- Rope Details -->
  <path d="M65,90 C70,80 80,75 90,80" fill="none" stroke="#D2B48C" stroke-width="1" />
  <path d="M120,90 C130,85 135,95 140,90" fill="none" stroke="#D2B48C" stroke-width="1" />
  
  <!-- Water Line -->
  <path d="M20,120 C25,125 35,123 40,120 C50,125 60,123 70,120 C80,125 90,123 100,120 C110,125 120,123 130,120 C140,125 150,123 160,120 C170,125 180,123 190,120" fill="none" stroke="#1E90FF" stroke-width="2" opacity="0.5" />
</svg> 