<svg width="64" height="64" xmlns="http://www.w3.org/2000/svg">
  <!-- Pirate Character -->
  
  <!-- Body -->
  <ellipse cx="32" cy="40" rx="12" ry="15" fill="#1A1A1A" />
  
  <!-- Head -->
  <circle cx="32" cy="22" r="10" fill="#D7CCC8" />
  
  <!-- Pirate Hat -->
  <path d="M19,18 L45,18 L42,12 L22,12 Z" fill="#37474F" />
  <ellipse cx="32" cy="18" rx="13" ry="3" fill="#37474F" />
  <path d="M22,12 L25,6 L39,6 L42,12" fill="#37474F" />
  <circle cx="32" cy="6" r="3" fill="#F44336" />
  
  <!-- Eye Patch -->
  <path d="M26,16 C26,16 28,14 32,14 C36,14 38,16 38,16 L38,20 C38,20 36,22 32,22 C28,22 26,20 26,20 Z" fill="#263238" />
  <path d="M26,18 L22,24" stroke="#263238" stroke-width="1" />
  
  <!-- Visible Eye -->
  <circle cx="36" cy="20" r="2" fill="#263238" />
  
  <!-- Mouth (Scowl) -->
  <path d="M28,26 C30,24 34,24 36,26" fill="none" stroke="#263238" stroke-width="1" />
  
  <!-- Arms -->
  <line x1="20" y1="35" x2="15" y2="45" stroke="#D7CCC8" stroke-width="4" stroke-linecap="round" />
  <line x1="44" y1="35" x2="49" y2="45" stroke="#D7CCC8" stroke-width="4" stroke-linecap="round" />
  
  <!-- Legs -->
  <line x1="28" y1="55" x2="26" y2="62" stroke="#D7CCC8" stroke-width="4" stroke-linecap="round" />
  <line x1="36" y1="55" x2="38" y2="62" stroke="#D7CCC8" stroke-width="4" stroke-linecap="round" />
  
  <!-- Sword -->
  <line x1="15" y1="45" x2="8" y2="52" stroke="#9E9E9E" stroke-width="2" stroke-linecap="round" />
  <path d="M8,52 L5,55 L8,58 L11,55 Z" fill="#9E9E9E" />
  
  <!-- Skull Emblem -->
  <circle cx="32" cy="35" r="3" fill="white" />
  <circle cx="30" cy="34" r="0.8" fill="black" />
  <circle cx="34" cy="34" r="0.8" fill="black" />
  <path d="M30,37 L34,37" stroke="black" stroke-width="1" />
  <path d="M29,36 L35,36" stroke="black" stroke-width="0.5" />
</svg> 